<mxfile host="app.diagrams.net" modified="2021-06-12T11:27:26.706Z" agent="5.0 (Windows NT 10.0; Win64; x64) AppleWebKit/537.36 (KHTML, like Gecko) Chrome/91.0.4472.77 Safari/537.36" etag="QBDiM3jF52WWVfgJTcNk" version="14.7.7" type="github">
  <diagram id="x9Bm14kLlBbep5ouFzaa" name="Page-1">
    <mxGraphModel dx="1038" dy="579" grid="1" gridSize="10" guides="1" tooltips="1" connect="1" arrows="1" fold="1" page="1" pageScale="1" pageWidth="827" pageHeight="1169" math="0" shadow="0">
      <root>
        <mxCell id="0" />
        <mxCell id="1" parent="0" />
        <mxCell id="JfScHbJtm-zAf60Zud_Y-3" style="edgeStyle=orthogonalEdgeStyle;rounded=0;orthogonalLoop=1;jettySize=auto;html=1;exitX=1;exitY=0.5;exitDx=0;exitDy=0;" edge="1" parent="1" source="JfScHbJtm-zAf60Zud_Y-1" target="JfScHbJtm-zAf60Zud_Y-4">
          <mxGeometry relative="1" as="geometry">
            <mxPoint x="320" y="130" as="targetPoint" />
          </mxGeometry>
        </mxCell>
        <mxCell id="JfScHbJtm-zAf60Zud_Y-1" value="Driver Script - com.xyz.asap" style="rounded=0;whiteSpace=wrap;html=1;" vertex="1" parent="1">
          <mxGeometry x="70" y="100" width="120" height="60" as="geometry" />
        </mxCell>
        <mxCell id="JfScHbJtm-zAf60Zud_Y-4" value="Initialises a Folder Structure Containing" style="rounded=1;whiteSpace=wrap;html=1;" vertex="1" parent="1">
          <mxGeometry x="260" y="100" width="120" height="60" as="geometry" />
        </mxCell>
        <mxCell id="JfScHbJtm-zAf60Zud_Y-5" value="Execution Path&lt;br&gt;Storage Path&lt;br&gt;Environment xls&lt;br&gt;Config xml&lt;br&gt;" style="shape=parallelogram;perimeter=parallelogramPerimeter;whiteSpace=wrap;html=1;fixedSize=1;" vertex="1" parent="1">
          <mxGeometry x="390" y="150" width="230" height="100" as="geometry" />
        </mxCell>
        <mxCell id="JfScHbJtm-zAf60Zud_Y-8" value="" style="endArrow=classic;startArrow=classic;html=1;entryX=0.57;entryY=1.037;entryDx=0;entryDy=0;entryPerimeter=0;" edge="1" parent="1" source="JfScHbJtm-zAf60Zud_Y-5" target="JfScHbJtm-zAf60Zud_Y-4">
          <mxGeometry width="50" height="50" relative="1" as="geometry">
            <mxPoint x="390" y="310" as="sourcePoint" />
            <mxPoint x="440" y="260" as="targetPoint" />
          </mxGeometry>
        </mxCell>
      </root>
    </mxGraphModel>
  </diagram>
</mxfile>
